HIERARCHY
ROOT Hips
{
	OFFSET 0.000000 121.760803 0.000000
	CHANNELS 6 Xposition Yposition Zposition Xrotation Yrotation Zrotation 
	JOINT Spine
	{
		OFFSET 0.072000 7.257294 -0.789700
		CHANNELS 3 Xrotation Yrotation Zrotation
		JOINT Spine1
		{
			OFFSET 0.000000 12.508769 -0.658067
			CHANNELS 3 Xrotation Yrotation Zrotation
			JOINT Spine1_split
			{
				OFFSET 0.000000 12.508769 -0.658067
				CHANNELS 3 Xrotation Yrotation Zrotation
				JOINT Spine2
				{
					OFFSET 0.000000 12.508769 -0.658067
					CHANNELS 3 Xrotation Yrotation Zrotation
					JOINT Neck
					{
						OFFSET 0.000000 14.033295 7.520400
						CHANNELS 3 Xrotation Yrotation Zrotation
						JOINT Head
						{
							OFFSET 0.000000 8.198502 5.703100
							CHANNELS 3 Xrotation Yrotation Zrotation
							JOINT HeadTop_End
							{
								OFFSET 0.000000 17.760803 13.332701
								CHANNELS 3 Xrotation Yrotation Zrotation
								End Site
								{
									OFFSET 0.000000 0.000000 0.000000
								}
							}
						}
					}
					JOINT LeftShoulder
					{
						OFFSET 6.292450 5.785301 -0.669000
						CHANNELS 3 Xrotation Yrotation Zrotation
						JOINT LeftShoulder_split
						{
							OFFSET 6.292450 5.785301 -0.669000
							CHANNELS 3 Xrotation Yrotation Zrotation
							JOINT LeftArm
							{
								OFFSET 13.907140 -6.093903 1.965100
								CHANNELS 3 Xrotation Yrotation Zrotation
								JOINT LeftForeArm
								{
									OFFSET 34.140198 0.000000 0.000000
									CHANNELS 3 Xrotation Yrotation Zrotation
									JOINT LeftHand
									{
										OFFSET 40.960209 0.000000 0.000000
										CHANNELS 3 Xrotation Yrotation Zrotation
										JOINT LeftHandThumb1
										{
											OFFSET 10.006996 -7.170425 9.573125
											CHANNELS 3 Xrotation Yrotation Zrotation
											JOINT LeftHandThumb2
											{
												OFFSET 1.835007 -1.059448 1.059443
												CHANNELS 3 Xrotation Yrotation Zrotation
												JOINT LeftHandThumb3
												{
													OFFSET 2.112267 -1.219513 1.219518
													CHANNELS 3 Xrotation Yrotation Zrotation
													JOINT LeftHandThumb4
													{
														OFFSET 4.843811 -2.796570 2.796576
														CHANNELS 3 Xrotation Yrotation Zrotation
														End Site
														{
															OFFSET 0.000000 0.000000 0.000000
														}
													}
												}
											}
										}
										JOINT LeftHandIndex1
										{
											OFFSET 18.389847 -0.922348 4.596882
											CHANNELS 3 Xrotation Yrotation Zrotation
											JOINT LeftHandIndex2
											{
												OFFSET 4.711273 0.000000 0.000000
												CHANNELS 3 Xrotation Yrotation Zrotation
												JOINT LeftHandIndex3
												{
													OFFSET 2.886131 0.000000 0.000000
													CHANNELS 3 Xrotation Yrotation Zrotation
													JOINT LeftHandIndex4
													{
														OFFSET 6.145912 0.000000 0.000000
														CHANNELS 3 Xrotation Yrotation Zrotation
														End Site
														{
															OFFSET 0.000000 0.000000 0.000000
														}
													}
												}
											}
										}
										JOINT LeftHandMiddle1
										{
											OFFSET 18.013008 0.000000 0.000000
											CHANNELS 3 Xrotation Yrotation Zrotation
											JOINT LeftHandMiddle2
											{
												OFFSET 4.946693 0.000000 0.000000
												CHANNELS 3 Xrotation Yrotation Zrotation
												JOINT LeftHandMiddle3
												{
													OFFSET 3.342232 0.000000 0.000000
													CHANNELS 3 Xrotation Yrotation Zrotation
													JOINT LeftHandMiddle4
													{
														OFFSET 4.461754 0.000000 0.000000
														CHANNELS 3 Xrotation Yrotation Zrotation
														End Site
														{
															OFFSET 0.000000 0.000000 0.000000
														}
													}
												}
											}
										}
										JOINT LeftHandRing1
										{
											OFFSET 15.849892 -0.102921 -4.126150
											CHANNELS 3 Xrotation Yrotation Zrotation
											JOINT LeftHandRing2
											{
												OFFSET 3.527054 0.000000 0.000000
												CHANNELS 3 Xrotation Yrotation Zrotation
												JOINT LeftHandRing3
												{
													OFFSET 2.961098 0.000000 0.000000
													CHANNELS 3 Xrotation Yrotation Zrotation
													JOINT LeftHandRing4
													{
														OFFSET 4.927200 0.000000 0.000000
														CHANNELS 3 Xrotation Yrotation Zrotation
														End Site
														{
															OFFSET 0.000000 0.000000 0.000000
														}
													}
												}
											}
										}
										JOINT LeftHandPinky1
										{
											OFFSET 12.791824 -0.832031 -6.799156
											CHANNELS 3 Xrotation Yrotation Zrotation
											JOINT LeftHandPinky2
											{
												OFFSET 3.327133 0.000000 0.000000
												CHANNELS 3 Xrotation Yrotation Zrotation
												JOINT LeftHandPinky3
												{
													OFFSET 3.014900 0.000000 0.000000
													CHANNELS 3 Xrotation Yrotation Zrotation
													JOINT LeftHandPinky4
													{
														OFFSET 5.847786 0.000000 0.000000
														CHANNELS 3 Xrotation Yrotation Zrotation
														End Site
														{
															OFFSET 0.000000 0.000000 0.000000
														}
													}
												}
											}
										}
									}
								}
							}
						}
					}
					JOINT RightShoulder
					{
						OFFSET -6.292450 5.785301 -0.669000
						CHANNELS 3 Xrotation Yrotation Zrotation
						JOINT RightShoulder_split
						{
							OFFSET -6.292450 5.785301 -0.669000
							CHANNELS 3 Xrotation Yrotation Zrotation
							JOINT RightArm
							{
								OFFSET -13.907140 -6.093903 1.965100
								CHANNELS 3 Xrotation Yrotation Zrotation
								JOINT RightForeArm
								{
									OFFSET -34.140198 0.000000 0.000000
									CHANNELS 3 Xrotation Yrotation Zrotation
									JOINT RightHand
									{
										OFFSET -40.960209 0.000000 0.000000
										CHANNELS 3 Xrotation Yrotation Zrotation
										JOINT RightHandThumb1
										{
											OFFSET -10.007050 -7.170456 9.573117
											CHANNELS 3 Xrotation Yrotation Zrotation
											JOINT RightHandThumb2
											{
												OFFSET -1.835007 -1.059448 1.059443
												CHANNELS 3 Xrotation Yrotation Zrotation
												JOINT RightHandThumb3
												{
													OFFSET -2.112267 -1.219513 1.219518
													CHANNELS 3 Xrotation Yrotation Zrotation
													JOINT RightHandThumb4
													{
														OFFSET -4.843834 -2.796585 2.796590
														CHANNELS 3 Xrotation Yrotation Zrotation
														End Site
														{
															OFFSET 0.000000 0.000000 0.000000
														}
													}
												}
											}
										}
										JOINT RightHandIndex1
										{
											OFFSET -18.389870 -0.922424 4.596786
											CHANNELS 3 Xrotation Yrotation Zrotation
											JOINT RightHandIndex2
											{
												OFFSET -4.711273 0.000000 0.000000
												CHANNELS 3 Xrotation Yrotation Zrotation
												JOINT RightHandIndex3
												{
													OFFSET -2.886131 0.000000 0.000000
													CHANNELS 3 Xrotation Yrotation Zrotation
													JOINT RightHandIndex4
													{
														OFFSET -6.145920 0.000000 0.000000
														CHANNELS 3 Xrotation Yrotation Zrotation
														End Site
														{
															OFFSET 0.000000 0.000000 0.000000
														}
													}
												}
											}
										}
										JOINT RightHandMiddle1
										{
											OFFSET -18.013008 0.000000 0.000000
											CHANNELS 3 Xrotation Yrotation Zrotation
											JOINT RightHandMiddle2
											{
												OFFSET -4.946693 0.000000 0.000000
												CHANNELS 3 Xrotation Yrotation Zrotation
												JOINT RightHandMiddle3
												{
													OFFSET -3.342232 0.000000 0.000000
													CHANNELS 3 Xrotation Yrotation Zrotation
													JOINT RightHandMiddle4
													{
														OFFSET -4.461754 0.000000 0.000000
														CHANNELS 3 Xrotation Yrotation Zrotation
														End Site
														{
															OFFSET 0.000000 0.000000 0.000000
														}
													}
												}
											}
										}
										JOINT RightHandRing1
										{
											OFFSET -15.849876 -0.102936 -4.126237
											CHANNELS 3 Xrotation Yrotation Zrotation
											JOINT RightHandRing2
											{
												OFFSET -3.527054 0.000000 0.000000
												CHANNELS 3 Xrotation Yrotation Zrotation
												JOINT RightHandRing3
												{
													OFFSET -2.961098 0.000000 0.000000
													CHANNELS 3 Xrotation Yrotation Zrotation
													JOINT RightHandRing4
													{
														OFFSET -4.927200 0.000000 0.000000
														CHANNELS 3 Xrotation Yrotation Zrotation
														End Site
														{
															OFFSET 0.000000 0.000000 0.000000
														}
													}
												}
											}
										}
										JOINT RightHandPinky1
										{
											OFFSET -12.791786 -0.832077 -6.799222
											CHANNELS 3 Xrotation Yrotation Zrotation
											JOINT RightHandPinky2
											{
												OFFSET -3.327133 0.000000 0.000000
												CHANNELS 3 Xrotation Yrotation Zrotation
												JOINT RightHandPinky3
												{
													OFFSET -3.014900 0.000000 0.000000
													CHANNELS 3 Xrotation Yrotation Zrotation
													JOINT RightHandPinky4
													{
														OFFSET -5.847786 0.000000 0.000000
														CHANNELS 3 Xrotation Yrotation Zrotation
														End Site
														{
															OFFSET 0.000000 0.000000 0.000000
														}
													}
												}
											}
										}
									}
								}
							}
						}
					}
				}
			}
		}
	}
	JOINT LeftUpLeg
	{
		OFFSET 13.026900 -6.336304 -1.092800
		CHANNELS 3 Xrotation Yrotation Zrotation
		JOINT LeftLeg
		{
			OFFSET 0.524474 -46.096886 9.782700
			CHANNELS 3 Xrotation Yrotation Zrotation
			JOINT LeftFoot
			{
				OFFSET -0.524474 -53.427422 -12.948200
				CHANNELS 3 Xrotation Yrotation Zrotation
				JOINT LeftToeBase
				{
					OFFSET 0.192200 -14.009700 16.364100
					CHANNELS 3 Xrotation Yrotation Zrotation
					JOINT LeftToe_End
					{
						OFFSET -1.784700 -0.561700 9.474800
						CHANNELS 3 Xrotation Yrotation Zrotation
						End Site
						{
							OFFSET 0.000000 0.000000 0.000000
						}
					}
				}
			}
		}
	}
	JOINT RightUpLeg
	{
		OFFSET -12.883000 -6.336304 -1.092800
		CHANNELS 3 Xrotation Yrotation Zrotation
		JOINT RightLeg
		{
			OFFSET -0.524587 -46.096825 9.782800
			CHANNELS 3 Xrotation Yrotation Zrotation
			JOINT RightFoot
			{
				OFFSET 0.524587 -53.427383 -12.948300
				CHANNELS 3 Xrotation Yrotation Zrotation
				JOINT RightToeBase
				{
					OFFSET -0.192200 -14.009700 16.364100
					CHANNELS 3 Xrotation Yrotation Zrotation
					JOINT RightToe_End
					{
						OFFSET 1.784700 -0.561700 9.474800
						CHANNELS 3 Xrotation Yrotation Zrotation
						End Site
						{
							OFFSET 0.000000 0.000000 0.000000
						}
					}
				}
			}
		}
	}
}
MOTION
Frames: 5
Frame Time: 0.016667
-0.080800 117.116463 0.857706 1.892515 0.265710 -0.139370 2.071483 0.296305 0.813153 3.430438 -0.015269 0.185037 0.000000 0.000000 0.000000 3.430497 0.005499 0.178976 -3.527214 -0.012947 -0.020364 -2.723220 -0.263049 0.289011 0.000000 -0.000000 -0.000000 0.742835 8.952361 -13.053722 0.000000 0.000000 0.000000 10.740854 -6.252043 -54.033869 0.000010 -33.005916 0.000012 3.135486 -1.542044 -4.245100 -3.935397 -5.157143 8.901492 21.369784 38.859105 0.033453 -0.468180 -2.423302 17.081265 -0.000001 0.000001 -0.000000 1.240178 5.550741 -31.144665 2.582851 4.855850 -55.996981 -0.000000 -0.001537 0.014999 0.000000 0.000001 0.000001 2.320325 7.123384 -41.324714 3.978848 5.544430 -71.308022 0.000000 -0.000585 0.005644 0.000000 -0.000002 -0.000000 2.315927 7.119637 -41.286062 3.978840 5.544425 -71.308036 0.000000 -0.000579 0.005645 -0.000000 -0.000003 0.000000 2.340559 7.146618 -41.312133 3.983164 5.545886 -71.352739 0.000000 -0.000578 0.005645 0.000000 -0.000003 -0.000000 1.078069 -8.352865 11.371667 0.000000 0.000000 0.000000 3.407872 18.890959 61.317320 0.000012 23.538790 -0.000014 1.182688 -2.960227 -1.406667 -5.113514 0.222623 -17.981433 16.974239 -29.891274 7.722244 -6.335528 -28.130464 -4.848439 -0.000001 0.000001 -0.000003 0.293265 -3.768019 14.855202 3.775968 -4.573218 79.081296 0.158028 1.204118 -14.952698 -0.000000 0.000003 0.000003 1.476681 -5.897273 31.989662 4.654519 -4.657166 89.967382 0.158026 1.204126 -14.952696 -0.000000 -0.000001 0.000000 1.427409 -5.817114 32.033095 4.654585 -4.657173 89.968071 0.158023 1.204122 -14.952703 0.000000 0.000001 -0.000000 1.424028 -5.850159 32.030599 4.654584 -4.657170 89.968160 0.158025 1.204117 -14.952693 -0.000000 -0.000003 0.000000 -6.966456 -4.920013 9.752396 13.150028 0.012475 -1.534508 -5.756241 14.530474 -8.781532 -0.022026 0.000003 0.000001 -0.000000 -0.000000 0.000000 -6.357990 -4.969812 -8.954901 13.945712 0.251104 -0.295556 -8.082296 -11.440865 7.945513 0.109671 -0.000001 0.000000 -0.000000 -0.000001 0.000000 
0.657426 116.922470 0.873846 1.971281 0.163328 -0.288573 2.228272 0.165068 0.940509 3.366060 -0.047926 0.178463 0.000000 0.000000 0.000000 3.366263 -0.027680 0.173012 -3.461164 -0.005422 -0.020364 -2.503164 -0.228412 0.394053 0.000000 -0.000000 -0.000000 0.736156 8.634891 -13.051693 0.000000 0.000000 0.000000 10.465386 -6.468715 -54.238563 0.000001 -32.925398 0.000010 3.835486 -1.562233 -4.453636 -3.935397 -5.157142 8.901487 21.369799 38.859111 0.033450 -0.468205 -2.423312 17.081265 -0.000001 -0.000001 -0.000001 1.240180 5.550748 -31.144652 2.582857 4.855846 -55.997002 0.000150 0.042017 -0.410016 -0.000001 0.000002 0.000000 2.320332 7.123391 -41.324687 3.979596 5.544678 -71.315924 0.000194 0.047583 -0.464339 0.000000 0.000000 0.000000 2.324898 7.126368 -41.393808 3.982370 5.545610 -71.344591 0.000816 0.097853 -0.954951 -0.000000 0.000000 0.000000 2.340562 7.146616 -41.312129 3.983163 5.545887 -71.352746 0.001090 0.113150 -1.104274 -0.000000 0.000002 0.000001 1.102346 -8.042772 11.607335 0.000000 0.000000 0.000000 3.214947 18.780587 60.984369 -0.000005 23.113676 0.000026 2.062545 -2.669423 -0.892139 -5.113509 0.222622 -17.981446 16.974243 -29.891288 7.722243 -6.335518 -28.130457 -4.848423 -0.000001 0.000004 -0.000003 0.293277 -3.768018 14.855171 3.760201 -4.570156 78.883528 0.143300 1.147576 -14.235153 0.000001 0.000002 0.000004 1.476687 -5.897274 31.989662 4.659793 -4.657164 90.032296 0.149954 1.173494 -14.563618 -0.000000 -0.000001 -0.000000 1.436522 -5.825512 32.180525 4.654579 -4.657173 89.968051 0.142513 1.144479 -14.195905 -0.000000 0.000003 -0.000001 1.432358 -5.863709 32.225536 4.654594 -4.657180 89.968153 0.141023 1.138563 -14.120826 0.000000 -0.000001 0.000000 -7.702853 -4.585486 9.625068 14.207436 -0.194205 -1.611972 -6.430486 13.518586 -8.358654 -0.014345 0.000008 0.000001 -0.000000 0.000001 0.000000 -6.561793 -4.898708 -9.248353 14.103494 0.367464 -0.285987 -8.009297 -11.472244 8.361136 0.103734 -0.000013 0.000001 -0.000000 -0.000001 0.000000 
1.395621 116.732796 0.857792 2.047145 0.064343 -0.420119 2.391648 0.035305 1.045939 3.299833 -0.080446 0.171142 0.000000 0.000000 0.000000 3.300177 -0.060740 0.166296 -3.396150 0.002399 -0.020364 -2.286793 -0.182576 0.481419 0.000000 0.000000 0.000000 0.729731 8.312048 -13.050098 0.000000 0.000000 0.000000 10.192957 -6.689425 -54.453058 -0.000000 -32.826545 -0.000014 4.533529 -1.587745 -4.670903 -3.935394 -5.157139 8.901488 21.369785 38.859111 0.033485 -0.468187 -2.423303 17.081262 0.000002 0.000001 0.000001 1.240179 5.550748 -31.144648 2.582852 4.855847 -55.996999 0.000631 0.086122 -0.840417 0.000000 -0.000001 0.000002 2.320327 7.123395 -41.324697 3.980458 5.544970 -71.324742 0.000792 0.096398 -0.940718 0.000000 -0.000002 0.000000 2.334063 7.133218 -41.503733 3.985971 5.546824 -71.381815 0.003333 0.197798 -1.930548 0.000000 0.000003 -0.000000 2.340566 7.146620 -41.312129 3.983167 5.545885 -71.352760 0.004438 0.228234 -2.227743 0.000000 -0.000000 0.000000 1.124654 -7.724699 11.847047 0.000000 0.000000 0.000000 3.010279 18.678489 60.639772 0.000002 22.673023 0.000005 2.953358 -2.354769 -0.380917 -5.113519 0.222620 -17.981451 16.974232 -29.891271 7.722243 -6.335533 -28.130464 -4.848444 -0.000002 -0.000002 0.000001 0.293277 -3.768022 14.855170 3.744290 -4.567016 78.683820 0.129092 1.090060 -13.507504 0.000001 0.000000 0.000001 1.476681 -5.897276 31.989652 4.665318 -4.657163 90.100222 0.142059 1.142688 -14.173046 0.000000 0.000002 0.000000 1.445848 -5.834063 32.330912 4.654584 -4.657165 89.968078 0.127649 1.084035 -13.431497 0.000000 0.000003 0.000000 1.440919 -5.877522 32.424254 4.654588 -4.657167 89.968160 0.124818 1.072107 -13.280777 -0.000000 -0.000002 0.000000 -8.431042 -4.225458 9.503727 15.195718 -0.443936 -1.702601 -7.040431 12.417957 -7.930545 -0.007612 0.000002 0.000002 0.000000 0.000001 0.000000 -6.783060 -4.827911 -9.560862 14.256481 0.480014 -0.277471 -7.909617 -11.496458 8.778723 0.092233 -0.000002 -0.000001 -0.000000 0.000001 0.000000 
2.135420 116.544403 0.815431 2.120617 -0.031854 -0.541375 2.560369 -0.092976 1.137585 3.232090 -0.112856 0.163209 0.000000 0.000000 0.000000 3.232566 -0.093704 0.158966 -3.332029 0.010478 -0.020364 -2.078844 -0.125606 0.557600 -0.000000 0.000000 0.000000 0.723533 7.984865 -13.048749 0.000000 0.000000 0.000000 9.926429 -6.917191 -54.675275 0.000009 -32.712863 -0.000002 5.229921 -1.618792 -4.895271 -3.935391 -5.157139 8.901506 21.369785 38.859105 0.033463 -0.468192 -2.423302 17.081255 -0.000001 0.000000 -0.000000 1.240178 5.550751 -31.144621 2.582858 4.855841 -55.997012 0.001455 0.130699 -1.275576 -0.000000 0.000000 -0.000001 2.320323 7.123391 -41.324683 3.981384 5.545278 -71.334345 0.001810 0.145775 -1.422710 0.000000 0.000000 0.000000 2.343398 7.140162 -41.615564 3.989627 5.548044 -71.419648 0.007620 0.299021 -2.919247 0.000000 -0.000000 0.000000 2.340563 7.146615 -41.312136 3.983166 5.545886 -71.352732 0.010112 0.344443 -3.363188 0.000000 0.000003 -0.000001 1.144756 -7.400145 12.089766 0.000000 0.000000 0.000000 2.794419 18.583896 60.286555 -0.000002 22.219837 0.000025 3.851657 -2.017858 0.124930 -5.113521 0.222626 -17.981438 16.974243 -29.891292 7.722257 -6.335523 -28.130464 -4.848435 -0.000003 0.000002 -0.000003 0.293268 -3.768010 14.855183 3.728267 -4.563788 78.482343 0.115458 1.031652 -12.771025 0.000001 -0.000001 -0.000003 1.476688 -5.897271 31.989645 4.671012 -4.657142 90.170450 0.134346 1.111697 -13.780999 -0.000000 0.000002 0.000000 1.455353 -5.842715 32.483929 4.654580 -4.657174 89.968051 0.113471 1.022856 -12.660253 0.000000 -0.000003 -0.000000 1.449674 -5.891538 32.626383 4.654592 -4.657164 89.968194 0.109461 1.004834 -12.433407 -0.000000 -0.000000 0.000001 -9.156257 -3.852360 9.388288 16.138583 -0.718706 -1.800467 -7.594101 11.256317 -7.500675 -0.002043 -0.000001 -0.000003 -0.000000 -0.000000 -0.000000 -7.018014 -4.756793 -9.885340 14.405023 0.590858 -0.269554 -7.787725 -11.515491 9.198244 0.074550 0.000008 0.000003 0.000000 0.000002 0.000000 
2.872766 116.346825 0.751314 2.192205 -0.126741 -0.641708 2.734783 -0.219694 1.204528 3.162680 -0.145143 0.154605 0.000000 0.000000 0.000000 3.163290 -0.126561 0.150961 -3.268993 0.018849 -0.018577 -1.887779 -0.058102 0.630192 0.000000 0.000000 0.000000 0.717568 7.653007 -13.047680 0.000000 0.000000 0.000000 9.666115 -7.152680 -54.905487 0.000002 -32.583199 -0.000006 5.924527 -1.655664 -5.127137 -3.935404 -5.157148 8.901436 21.369760 38.859122 0.033494 -0.468186 -2.423311 17.081234 -0.000001 0.000001 0.000002 1.240180 5.550744 -31.144669 2.582854 4.855849 -55.997016 0.002635 0.175797 -1.715700 -0.000001 -0.000001 -0.000003 2.320326 7.123384 -41.324714 3.982389 5.545624 -71.344727 0.003266 0.195753 -1.910625 0.000000 0.000000 -0.000001 2.352916 7.147210 -41.729485 3.993341 5.549289 -71.458095 0.013749 0.401588 -3.921901 -0.000000 0.000002 -0.000001 2.340557 7.146610 -41.312157 3.983168 5.545887 -71.352746 0.018191 0.461792 -4.511129 0.000000 -0.000002 0.000002 1.162526 -7.068634 12.335785 0.000000 0.000000 0.000000 2.566465 18.497474 59.924207 0.000001 21.753107 -0.000007 4.758064 -1.657844 0.624878 -5.113512 0.222627 -17.981477 16.974244 -29.891292 7.722249 -6.335527 -28.130464 -4.848434 -0.000001 0.000002 -0.000004 0.293265 -3.768019 14.855183 3.712101 -4.560470 78.279118 0.102414 0.972339 -12.025191 0.000000 -0.000002 0.000001 1.476691 -5.897269 31.989635 4.676902 -4.657121 90.243048 0.126820 1.080562 -13.387702 0.000000 -0.000001 0.000001 1.465065 -5.851515 32.639732 4.654584 -4.657176 89.968071 0.100001 0.960937 -11.882044 -0.000000 0.000002 0.000000 1.458652 -5.905793 32.832176 4.654590 -4.657161 89.968174 0.094976 0.936730 -11.578568 0.000000 -0.000001 0.000001 -9.889233 -3.472720 9.268095 17.072992 -0.987623 -1.905208 -8.129226 10.046623 -7.071679 0.002126 0.000003 -0.000002 -0.000000 -0.000000 0.000000 -7.285594 -4.678102 -10.233499 14.588633 0.702725 -0.261169 -7.666114 -11.534467 9.618006 0.047635 -0.000004 -0.000001 -0.000000 -0.000001 0.000000 
